<?xml version="1.0" encoding="utf-8"?>
<!-- Generator: Adobe Illustrator 24.2.3, SVG Export Plug-In . SVG Version: 6.00 Build 0)  -->
<svg version="1.1" id="Layer_1" xmlns="http://www.w3.org/2000/svg" xmlns:xlink="http://www.w3.org/1999/xlink" x="0px" y="0px"
	 width="70px" height="70px" viewBox="0 0 70 70" style="enable-background:new 0 0 70 70;" xml:space="preserve">
<style type="text/css">
	.st0{fill:#DDDDDD;}
	.st1{fill:#848484;}
	.st2{fill:#BCBCBC;}
	.st3{fill:#474747;}
	.st4{fill:#636363;}
</style>
<g>
	<path class="st0" d="M69,36.5H58.5c-0.3,4.1-1.5,7.8-3.6,11.1l8.5,6.2C66.7,48.8,68.7,42.9,69,36.5z"/>
	<path class="st0" d="M54.9,22.4c2.1,3.2,3.3,7,3.6,11.1H69c-0.3-6.4-2.3-12.3-5.6-17.3L54.9,22.4z"/>
	<path class="st0" d="M43.7,13.2c3.7,1.5,6.9,3.8,9.4,6.8l8.5-6.2c-3.8-4.8-8.9-8.5-14.7-10.7L43.7,13.2z"/>
	<path class="st1" d="M1,33.5h10.5c0.3-4.1,1.5-7.8,3.6-11.1l-8.5-6.2C3.3,21.2,1.3,27.1,1,33.5z"/>
	<path class="st2" d="M15.1,47.6c-2.1-3.2-3.3-7-3.6-11.1H1c0.3,6.4,2.3,12.3,5.6,17.3L15.1,47.6z"/>
	<path class="st0" d="M40.8,57.8C39,58.2,37,58.5,35,58.5s-4-0.3-5.8-0.7l-3.3,10c2.9,0.8,5.9,1.2,9.1,1.2s6.2-0.4,9.1-1.2
		L40.8,57.8z"/>
	<path class="st0" d="M53.1,50c-2.5,3-5.7,5.4-9.4,6.8l3.3,10c5.8-2.2,10.9-5.9,14.7-10.7L53.1,50z"/>
	<path class="st0" d="M26.3,56.8c-3.7-1.5-6.9-3.8-9.4-6.8l-8.5,6.2c3.8,4.8,8.9,8.5,14.7,10.7L26.3,56.8z"/>
	<path class="st3" d="M29.2,12.2c1.9-0.5,3.8-0.7,5.8-0.7s4,0.3,5.8,0.7l3.3-10C41.2,1.4,38.1,1,35,1s-6.2,0.4-9.1,1.2L29.2,12.2z"
		/>
	<path class="st4" d="M16.9,20c2.5-3,5.7-5.4,9.4-6.8l-3.3-10C17.2,5.3,12.2,9.1,8.4,13.8L16.9,20z"/>
</g>
</svg>
