<svg xmlns="http://www.w3.org/2000/svg" xmlns:xlink="http://www.w3.org/1999/xlink" width="180" height="28" viewBox="0 0 180 28">
    <defs>
        <path id="a" d="M0 .124h37.376v26.923H0z"/>
        <path id="c" d="M0 27.389h179.978V.466H0z"/>
    </defs>
    <g fill="none" fill-rule="evenodd">
        <g transform="translate(0 .342)">
            <mask id="b" fill="#fff">
                <use xlink:href="#a"/>
            </mask>
            <path fill="#1F263A" d="M11.329 22.038c.587 1.21 1.478 1.906 2.45 1.913h.013c.965 0 1.856-.678 2.454-1.86l.785-1.68L9.398 4.233 4.123 6.695l7.206 15.343zm9.917.051c.594 1.184 1.49 1.862 2.452 1.862h.01c.973-.007 1.868-.701 2.45-1.91l7.113-15.343-5.278-2.461-7.544 16.167.797 1.685zm2.452 4.958c-1.985 0-3.803-1.14-4.952-3.08-1.152 1.94-2.967 3.08-4.954 3.08h-.033c-2.167-.015-4.116-1.386-5.222-3.668l-.005-.016L0 5.201 10.885.127l7.848 16.636L26.496.124l10.88 5.072-8.422 18.183c-1.104 2.282-3.055 3.653-5.221 3.668h-.035z" mask="url(#b)"/>
        </g>
        <path fill="#1F263A" d="M50.507 23.956c1.62 0 2.425-1.312 2.838-2.234l3.995-10.13-3.18-1.15-3.653 10.136-3.655-10.136-3.178 1.15 3.994 10.13c.414.922 1.22 2.234 2.839 2.234M72.623 23.956c1.62 0 2.425-1.312 2.838-2.234l3.994-10.13-3.178-1.15-3.654 10.136-3.655-10.136-3.179 1.15 3.995 10.13c.414.922 1.22 2.234 2.839 2.234M83.56 16.974c0 2.137 1.405 3.857 3.612 3.857 2.155 0 3.608-1.646 3.608-3.857 0-2.21-1.453-3.856-3.608-3.856-2.207 0-3.611 1.717-3.611 3.856zm10.394 6.64h-3.28v-1.466c-.863 1.069-2.151 1.808-3.97 1.808-3.657 0-6.424-2.998-6.424-6.982 0-3.985 2.767-6.983 6.424-6.983 1.819 0 3.095.739 3.97 1.82v-1.464h3.28v13.268zM156.846 15.834h6.326c-.194-1.78-1.452-2.95-3.097-2.95-1.8 0-3.117 1.324-3.229 2.95m9.705 1.126c0 .412-.03.904-.07 1.205h-9.601c.384 1.918 1.92 2.84 3.606 2.84 1.433 0 2.43-.43 3.387-1.238l2.06 2.177c-1.505 1.384-3.423 2.012-5.655 2.012-4.065 0-6.888-2.766-6.888-6.94 0-4.178 2.74-7.025 6.71-7.025 3.822 0 6.434 2.834 6.451 6.97M178.991 13.523h-5.125v4.847c0 1.657.592 2.419 2.269 2.419.847 0 1.852-.532 2.58-.97l1.262 2.741c-1.164.795-2.506 1.396-4.396 1.396-3.285 0-4.97-1.861-4.97-5.299v-5.134h-2.562v-3.087h2.562V6.402h3.255v4.034h5.125v3.087zM119.036 10.442l-3.655 10.136-3.275-9.088c-.316-.874-1.059-1.5-1.99-1.5-.933 0-1.676.626-1.99 1.5l-3.277 9.088-3.655-10.136-3.178 1.15 4.013 10.13c.415.922 1.22 2.234 2.84 2.234 1.618 0 2.423-1.312 2.836-2.235l2.411-6.121 2.41 6.121c.412.923 1.218 2.235 2.836 2.235 1.62 0 2.426-1.312 2.84-2.235l4.012-10.129-3.178-1.15zM126.214 16.974c0 2.137 1.404 3.857 3.611 3.857 2.156 0 3.608-1.646 3.608-3.857 0-2.21-1.452-3.856-3.608-3.856-2.207 0-3.611 1.717-3.611 3.856zm10.393 6.64h-3.279v-1.466c-.865 1.069-2.153 1.808-3.97 1.808-3.658 0-6.425-2.998-6.425-6.982 0-3.985 2.767-6.983 6.424-6.983 1.818 0 3.096.739 3.971 1.82v-1.464h3.28v13.268z"/>
        <mask id="d" fill="#fff">
            <use xlink:href="#c"/>
        </mask>
        <path fill="#1F263A" d="M140.11 23.634h3.24V3.898h-3.24zM147.153 23.634h3.24V3.898h-3.24zM59.919 23.634h3.24V10.36h-3.24zM63.615 5.872c0 1.172-.923 2.07-2.082 2.07-1.172 0-2.069-.898-2.069-2.07 0-1.171.897-2.094 2.069-2.094 1.159 0 2.082.923 2.082 2.094" mask="url(#d)"/>
    </g>
</svg>
